<svg xmlns="http://www.w3.org/2000/svg" width="40" height="40" fill="none" viewBox="0 0 40 40">
  <path fill="#629755" d="m11.771 3.186-2.343 8.708H8.124l2.344-8.708h1.303Zm2.473 4.432.089-1.374-1.151.77-.476-.838 1.24-.603-1.24-.604.476-.838 1.15.77-.088-1.374h.955l-.092 1.375 1.15-.771.476.838-1.236.604 1.236.603-.476.838-1.15-.77.092 1.374h-.955Zm5.644 0 .09-1.374-1.152.77-.475-.838 1.239-.603-1.24-.604.476-.838 1.151.77-.089-1.374h.956l-.093 1.375 1.15-.771.477.838-1.236.604 1.236.603-.476.838-1.15-.77.092 1.374h-.956Zm-3.541 27 .09-1.374-1.152.77-.475-.838 1.239-.603-1.24-.604.477-.838 1.15.77-.089-1.374h.956l-.093 1.375 1.15-.771.477.838-1.236.604 1.236.603-.476.838-1.15-.77.092 1.374h-.956Zm7.069-4.432-2.344 8.708H19.77l2.344-8.708h1.303Z"/>
  <path fill="#fff" d="M13.95 26.611V10.944h2.1v15.667h-2.1Zm10.25.017c-.622 0-1.172-.122-1.65-.367a2.52 2.52 0 0 1-1.067-1.033c-.244-.434-.35-.956-.316-1.567l.166-2.533c.034-.456-.06-.8-.283-1.034-.211-.233-.572-.35-1.083-.35h-1.984v-1.916h1.984c.51 0 .872-.117 1.083-.35.222-.234.317-.572.283-1.017l-.166-2.616c-.034-.6.072-1.117.316-1.55.245-.434.6-.767 1.067-1 .478-.234 1.028-.35 1.65-.35h1.15v1.916h-.85c-.4 0-.717.095-.95.284-.222.188-.322.488-.3.9l.167 2.6c.044.655-.15 1.183-.584 1.583-.433.4-1.039.6-1.816.6v-.117c.766 0 1.366.206 1.8.617.444.4.644.933.6 1.6l-.167 2.6c-.011.367.094.655.317.867.233.2.544.3.933.3h.85v1.933H24.2Z"/>
</svg>
